# xmcd
#
# Track frame offsets: 
#        150
#        26070
#        61039
#        78694
#        93078
#        113388
#        127761
#        152248
#        170975
#        184303
#        203622
#        222623
#        239696
#        261270
#
# Disc length: 3796 seconds
#
# Revision: 0
# Processed by: cddbd v1.5.2PL0 Copyright (c) Steve Scherf et al.
# Submitted via: ExactAudioCopyFreeDBPlugin 1.0
#
DISCID=c30ed20e
DTITLE=Willie Kent - Storyville - The Chicago Blues Box 2 - CD8
DYEAR=2017
DGENRE=Blues
TTITLE0=I'm Not The Same Person
TTITLE1=Ghetto
TTITLE2=Dust My Broom
TTITLE3=I Wonder Why
TTITLE4=You Don't Love Me
TTITLE5=Chili Con Carne
TTITLE6=Blue Guitar
TTITLE7=Bobby's Rock
TTITLE8=Sweet Home Chicago
TTITLE9=Tell Him He's Got To Go
TTITLE10=Chicken Shack
TTITLE11=19 Years Old No.2
TTITLE12=I Love That Woman
TTITLE13=You Know I Love You
EXTD=
EXTT0=
EXTT1=
EXTT2=
EXTT3=
EXTT4=
EXTT5=
EXTT6=
EXTT7=
EXTT8=
EXTT9=
EXTT10=
EXTT11=
EXTT12=
EXTT13=
PLAYORDER=
